<svg width="78" height="78" viewBox="0 0 78 78" fill="none" xmlns="http://www.w3.org/2000/svg">
<mask id="mask0_35707_27946" style="mask-type:luminance" maskUnits="userSpaceOnUse" x="0" y="0" width="78" height="78">
<path d="M0 0H78V78H0V0Z" fill="white"/>
</mask>
<g mask="url(#mask0_35707_27946)">
<path d="M38.9999 76.83C59.8929 76.83 76.8299 59.8929 76.8299 39C76.8299 18.1071 59.8929 1.17001 38.9999 1.17001C18.107 1.17001 1.16992 18.1071 1.16992 39C1.16992 59.8929 18.107 76.83 38.9999 76.83Z" fill="url(#paint0_linear_35707_27946)"/>
<g filter="url(#filter0_d_35707_27946)">
<path d="M51.8479 60.0757C51.4221 60.0752 51.0138 59.9059 50.7127 59.6049C50.4116 59.3038 50.2421 58.8956 50.2416 58.4698V53.7938C50.2416 53.3683 50.0726 52.9603 49.7717 52.6594C49.4709 52.3586 49.0628 52.1896 48.6374 52.1896C48.2119 52.1896 47.8039 52.3586 47.503 52.6594C47.2022 52.9603 47.0331 53.3683 47.0331 53.7938V56.0129C47.0331 56.4384 46.8641 56.8464 46.5633 57.1472C46.2624 57.4481 45.8544 57.6171 45.4289 57.6171C45.0035 57.6171 44.5954 57.4481 44.2946 57.1472C43.9937 56.8464 43.8247 56.4384 43.8247 56.0129V53.7938C43.8264 53.582 43.7861 53.372 43.7062 53.1759C43.6263 52.9797 43.5083 52.8014 43.3592 52.651C43.21 52.5007 43.0326 52.3814 42.8371 52.3C42.6416 52.2185 42.4319 52.1766 42.2201 52.1766C42.0083 52.1766 41.7986 52.2185 41.6031 52.3C41.4076 52.3814 41.2302 52.5007 41.081 52.651C40.9319 52.8014 40.8139 52.9797 40.734 53.1759C40.6541 53.372 40.6138 53.582 40.6155 53.7938V54.3977C40.6122 54.8214 40.4415 55.2267 40.1407 55.5252C39.8399 55.8236 39.4334 55.9911 39.0096 55.9911C38.5859 55.9911 38.1793 55.8236 37.8785 55.5252C37.5777 55.2267 37.4071 54.8214 37.4038 54.3977V53.7938C37.4054 53.582 37.3651 53.372 37.2852 53.1759C37.2053 52.9797 37.0874 52.8014 36.9382 52.651C36.7891 52.5007 36.6116 52.3814 36.4161 52.3C36.2206 52.2185 36.0109 52.1766 35.7991 52.1766C35.5874 52.1766 35.3777 52.2185 35.1822 52.3C34.9867 52.3814 34.8092 52.5007 34.6601 52.651C34.5109 52.8014 34.393 52.9797 34.3131 53.1759C34.2332 53.372 34.1929 53.582 34.1945 53.7938V56.0129C34.1945 56.4384 34.0255 56.8464 33.7247 57.1472C33.4238 57.4481 33.0158 57.6171 32.5903 57.6171C32.1649 57.6171 31.7568 57.4481 31.456 57.1472C31.1551 56.8464 30.9861 56.4384 30.9861 56.0129V53.7938C30.9861 53.3683 30.8171 52.9603 30.5162 52.6594C30.2154 52.3586 29.8074 52.1896 29.3819 52.1896C28.9564 52.1896 28.5484 52.3586 28.2475 52.6594C27.9467 52.9603 27.7777 53.3683 27.7777 53.7938V58.4698C27.7814 58.6828 27.7426 58.8944 27.6637 59.0922C27.5848 59.2901 27.4672 59.4702 27.3179 59.6221C27.1686 59.7741 26.9905 59.8947 26.7941 59.9771C26.5976 60.0595 26.3868 60.1019 26.1737 60.1019C25.9607 60.1019 25.7498 60.0595 25.5534 59.9771C25.357 59.8947 25.1789 59.7741 25.0296 59.6221C24.8803 59.4702 24.7627 59.2901 24.6838 59.0922C24.6049 58.8944 24.5661 58.6828 24.5698 58.4698V31.9767C24.6476 28.689 25.843 25.5258 27.9589 23.0083C30.0749 20.4908 32.9852 18.7691 36.2105 18.1268C39.4358 17.4846 42.7836 17.96 45.7026 19.4749C48.6215 20.9897 50.9374 23.4536 52.2688 26.4607C53.0391 28.2001 53.457 30.0749 53.4981 31.9767C53.5008 31.9964 53.4978 32.0165 53.4894 32.0346C53.481 32.0527 53.4677 32.068 53.4509 32.0788V58.4698C53.4506 58.8951 53.2817 59.303 52.9812 59.604C52.6808 59.905 52.2732 60.0747 51.8479 60.0757ZM37.3865 36.1871C36.9791 36.1871 36.8138 36.3449 36.8138 36.7345C36.8138 37.6817 37.8613 38.4518 39.1484 38.4518C40.4338 38.4518 41.4796 37.6815 41.4796 36.7345C41.4796 36.3457 41.3139 36.1879 40.9078 36.1879C40.6904 36.1955 40.4737 36.2175 40.2592 36.2537L40.239 36.2571C39.8783 36.3164 39.5138 36.3496 39.1484 36.3567C38.7821 36.3496 38.4169 36.3164 38.0553 36.2571C37.8343 36.2185 37.6108 36.1951 37.3865 36.1871ZM44.3721 28.3904C42.9518 28.3904 41.7971 29.7129 41.7971 31.339C41.7971 32.9635 42.9518 34.2851 44.3721 34.2851C45.7899 34.2851 46.9429 32.9635 46.9429 31.339C46.9426 29.7129 45.7896 28.3904 44.3721 28.3904ZM33.6958 28.3904C32.2789 28.3904 31.125 29.7129 31.125 31.339C31.125 32.9635 32.2789 34.2851 33.6958 34.2851C35.1128 34.2851 36.2674 32.9635 36.2674 31.339C36.2673 29.7129 35.1135 28.3904 33.6958 28.3904Z" fill="white"/>
</g>
</g>
<defs>
<filter id="filter0_d_35707_27946" x="24.0696" y="17.3481" width="29.9294" height="43.2538" filterUnits="userSpaceOnUse" color-interpolation-filters="sRGB">
<feFlood flood-opacity="0" result="BackgroundImageFix"/>
<feColorMatrix in="SourceAlpha" type="matrix" values="0 0 0 0 0 0 0 0 0 0 0 0 0 0 0 0 0 0 127 0" result="hardAlpha"/>
<feOffset/>
<feGaussianBlur stdDeviation="0.25"/>
<feColorMatrix type="matrix" values="0 0 0 0 0 0 0 0 0 0 0 0 0 0 0 0 0 0 0.161 0"/>
<feBlend mode="normal" in2="BackgroundImageFix" result="effect1_dropShadow_35707_27946"/>
<feBlend mode="normal" in="SourceGraphic" in2="effect1_dropShadow_35707_27946" result="shape"/>
</filter>
<linearGradient id="paint0_linear_35707_27946" x1="69.7935" y1="18.3448" x2="13.5025" y2="65.708" gradientUnits="userSpaceOnUse">
<stop stop-color="#B6509E"/>
<stop offset="1" stop-color="#2EBAC6"/>
</linearGradient>
</defs>
</svg>
