<svg width="49" height="29" viewBox="0 0 49 29" fill="none" xmlns="http://www.w3.org/2000/svg">
<path d="M1.72571 0.892368C0.651426 0.726102 0.605713 0.708902 1.11428 0.634369C2.08571 0.485302 4.37143 0.685969 5.94857 1.05864C9.62857 1.9301 12.9771 4.1661 16.5543 8.1393L17.5029 9.19424L18.8629 8.97637C24.5886 8.05903 30.4057 8.78717 35.28 11.0289C36.6229 11.6481 38.7371 12.875 38.9943 13.1904C39.0857 13.2936 39.24 13.9357 39.3371 14.6294C39.7029 17.026 39.5257 18.8549 38.7886 20.2252C38.3886 20.9705 38.3657 21.2056 38.6343 21.8477C38.7627 22.1122 38.9625 22.3351 39.2111 22.4912C39.4596 22.6473 39.7468 22.7303 40.04 22.7306C41.2514 22.7306 42.5543 20.7813 43.1543 18.0637L43.3943 16.9801L43.8686 17.519C46.48 20.466 48.5257 24.4793 48.8743 27.3345L48.9657 28.0798L48.5314 27.4033C47.9002 26.3671 47.052 25.4809 46.0457 24.8061C44.2971 23.6537 42.4457 23.2581 37.5543 23.0001C33.1314 22.7708 30.6286 22.3924 28.1486 21.584C23.9257 20.208 21.8 18.3848 16.7829 11.8258C14.5543 8.90757 13.1829 7.2965 11.8114 6.00077C8.69714 3.0481 5.64 1.5001 1.72571 0.898102V0.892368Z" fill="white"/>
</svg>
