<svg width="28" height="28" viewBox="0 0 28 28" fill="none" xmlns="http://www.w3.org/2000/svg">
<path d="M14 18.25C16.3472 18.25 18.25 16.3472 18.25 14C18.25 11.6528 16.3472 9.75 14 9.75C11.6528 9.75 9.75 11.6528 9.75 14C9.75 16.3472 11.6528 18.25 14 18.25Z" stroke="#49536E" stroke-width="3" stroke-linecap="round" stroke-linejoin="round"/>
<path d="M20 2H8C4.68629 2 2 4.68629 2 8V20C2 23.3137 4.68629 26 8 26H20C23.3137 26 26 23.3137 26 20V8C26 4.68629 23.3137 2 20 2Z" stroke="#49536E" stroke-width="3" stroke-linecap="round" stroke-linejoin="round"/>
<path d="M20.5 9.5C21.6046 9.5 22.5 8.60457 22.5 7.5C22.5 6.39543 21.6046 5.5 20.5 5.5C19.3954 5.5 18.5 6.39543 18.5 7.5C18.5 8.60457 19.3954 9.5 20.5 9.5Z" fill="#49536E"/>
</svg>
