<svg width="29" height="26" viewBox="0 0 29 26" fill="none" xmlns="http://www.w3.org/2000/svg">
<path d="M12.9997 6.99997C12.9997 4.24997 15.3122 1.96247 18.0622 1.99997C19.0253 2.01108 19.9646 2.30011 20.7673 2.83231C21.5701 3.36451 22.202 4.11722 22.5872 4.99997H26.9997L22.9622 9.03747C22.7016 13.0932 20.9063 16.8974 17.9412 19.6768C14.9761 22.4562 11.0638 24.002 6.9997 24C2.9997 24 1.9997 22.5 1.9997 22.5C1.9997 22.5 5.9997 21 7.9997 18C7.9997 18 -0.000301421 14 1.9997 2.99997C1.9997 2.99997 6.9997 7.99997 12.9997 8.99997V6.99997Z" stroke="#49536E" stroke-width="3" stroke-linecap="round" stroke-linejoin="round"/>
</svg>
