<svg width="100" height="75" viewBox="0 0 100 75" fill="none" xmlns="http://www.w3.org/2000/svg">
<path d="M83.3333 15.427C58.5714 32.6403 51.0582 61.8434 50.3968 74.2933C62.1429 77.2163 74.8677 69.0156 79.7619 64.5499L77.7778 63.7379L88.4921 54.8065L86.5079 53.5886C88.4127 52.2895 92.328 47.093 94.0476 44.6572L92.8571 43.4392C92.8571 43.4392 97.2222 36.5377 98.8095 33.2899H95.6349C97.5397 31.3412 99.3386 24.6291 100 21.5166H98.0159C98.9683 19.8927 99.7355 13.8031 100 10.9613H96.8254C98.7302 8.36308 98.4127 2.57117 98.0159 0C92.9365 0 86.6402 1.62389 84.127 2.43583V0.811937C78.0952 0.162379 73.1481 2.97713 71.4286 4.4657L70.2381 3.24779C64.8413 4.22213 60.9788 7.7135 59.5238 9.74337L58.3333 7.71351C56.5729 8.51264 50.9259 14.3444 50.3968 16.239L49.2063 14.2091C44.7619 18.4312 42.328 24.0878 41.6667 26.3883C50.2381 33.2087 52.6455 44.6571 52.7778 49.5288C60.7143 29.7173 76.455 18.5395 83.3333 15.427Z" fill="#A4E0D1"/>
<path d="M40.4762 28.0122C55.3968 49.1229 48.0159 66.3091 42.4603 72.2634C37.381 44.0076 21.0317 30.9894 13.4921 28.0122C34.127 44.2512 38.7566 65.6325 38.4921 74.2933C30.2381 77.2163 19.709 70.3688 15.4762 66.5798L16.2698 65.7678L9.12698 59.2722L10.3175 58.0543C9.04762 57.08 6.08466 53.3179 4.7619 51.5587L5.95238 49.5288C5 48.8793 2.6455 44.6571 1.5873 42.6273L3.57143 41.8153C2.30159 40.5162 0.661376 35.5904 0 33.2899L1.5873 32.8839C0.317431 31.5848 0.264562 26.659 0.396862 24.3584L2.38095 25.1704C1.42857 24.1961 1.45503 18.2688 1.5873 15.427C3.1746 15.427 9.12698 16.7803 11.9048 17.4569L13.0952 16.239C16.9048 16.239 20.5026 18.1335 21.8254 19.0808L23.8095 18.2688C27.3016 18.9184 30.291 22.0579 31.3492 23.5465L32.9365 21.5166C36.1111 23.4653 38.2275 27.2003 38.8889 28.8242L40.4762 28.0122Z" fill="#A4E0D1"/>
</svg>
