<svg width="152" height="127" viewBox="0 0 152 127" fill="none" xmlns="http://www.w3.org/2000/svg">
<g filter="url(#filter0_d_35696_27201)">
<path d="M109.333 41.427C84.5714 58.6403 77.0582 87.8434 76.3968 100.293C88.1429 103.216 100.868 95.0156 105.762 90.5499L103.778 89.7379L114.492 80.8065L112.508 79.5886C114.413 78.2895 118.328 73.093 120.048 70.6572L118.857 69.4392C118.857 69.4392 123.222 62.5377 124.81 59.2899H121.635C123.54 57.3412 125.339 50.6291 126 47.5166H124.016C124.968 45.8927 125.735 39.8031 126 36.9613H122.825C124.73 34.3631 124.413 28.5712 124.016 26C118.937 26 112.64 27.6239 110.127 28.4358V26.8119C104.095 26.1624 99.1481 28.9771 97.4286 30.4657L96.2381 29.2478C90.8413 30.2221 86.9788 33.7135 85.5238 35.7434L84.3333 33.7135C82.5729 34.5126 76.9259 40.3444 76.3968 42.239L75.2063 40.2091C70.7619 44.4312 68.328 50.0878 67.6667 52.3883C76.2381 59.2087 78.6455 70.6571 78.7778 75.5288C86.7143 55.7173 102.455 44.5395 109.333 41.427Z" fill="#3EB698"/>
<path d="M66.4762 54.0122C81.3968 75.1229 74.0159 92.3091 68.4603 98.2634C63.381 70.0076 47.0317 56.9894 39.4921 54.0122C60.127 70.2512 64.7566 91.6325 64.4921 100.293C56.2381 103.216 45.709 96.3688 41.4762 92.5798L42.2698 91.7678L35.127 85.2722L36.3175 84.0543C35.0476 83.08 32.0847 79.3179 30.7619 77.5587L31.9524 75.5288C31 74.8793 28.6455 70.6571 27.5873 68.6273L29.5714 67.8153C28.3016 66.5162 26.6614 61.5904 26 59.2899L27.5873 58.8839C26.3174 57.5848 26.2646 52.659 26.3969 50.3584L28.381 51.1704C27.4286 50.1961 27.455 44.2688 27.5873 41.427C29.1746 41.427 35.127 42.7803 37.9048 43.4569L39.0952 42.239C42.9048 42.239 46.5026 44.1335 47.8254 45.0808L49.8095 44.2688C53.3016 44.9184 56.291 48.0579 57.3492 49.5465L58.9365 47.5166C62.1111 49.4653 64.2275 53.2003 64.8889 54.8242L66.4762 54.0122Z" fill="#3EB698"/>
<path d="M109.333 41.427C84.5714 58.6403 77.0582 87.8434 76.3968 100.293C88.1429 103.216 100.868 95.0156 105.762 90.5499L103.778 89.7379L114.492 80.8065L112.508 79.5886C114.413 78.2895 118.328 73.093 120.048 70.6572L118.857 69.4392C118.857 69.4392 123.222 62.5377 124.81 59.2899H121.635C123.54 57.3412 125.339 50.6291 126 47.5166H124.016C124.968 45.8927 125.735 39.8031 126 36.9613H122.825C124.73 34.3631 124.413 28.5712 124.016 26C118.937 26 112.64 27.6239 110.127 28.4358V26.8119C104.095 26.1624 99.1481 28.9771 97.4286 30.4657L96.2381 29.2478C90.8413 30.2221 86.9788 33.7135 85.5238 35.7434L84.3333 33.7135C82.5729 34.5126 76.9259 40.3444 76.3968 42.239L75.2063 40.2091C70.7619 44.4312 68.328 50.0878 67.6667 52.3883C76.2381 59.2087 78.6455 70.6571 78.7778 75.5288C86.7143 55.7173 102.455 44.5395 109.333 41.427Z" stroke="#81D4BF" stroke-linejoin="round"/>
<path d="M66.4762 54.0122C81.3968 75.1229 74.0159 92.3091 68.4603 98.2634C63.381 70.0076 47.0317 56.9894 39.4921 54.0122C60.127 70.2512 64.7566 91.6325 64.4921 100.293C56.2381 103.216 45.709 96.3688 41.4762 92.5798L42.2698 91.7678L35.127 85.2722L36.3175 84.0543C35.0476 83.08 32.0847 79.3179 30.7619 77.5587L31.9524 75.5288C31 74.8793 28.6455 70.6571 27.5873 68.6273L29.5714 67.8153C28.3016 66.5162 26.6614 61.5904 26 59.2899L27.5873 58.8839C26.3174 57.5848 26.2646 52.659 26.3969 50.3584L28.381 51.1704C27.4286 50.1961 27.455 44.2688 27.5873 41.427C29.1746 41.427 35.127 42.7803 37.9048 43.4569L39.0952 42.239C42.9048 42.239 46.5026 44.1335 47.8254 45.0808L49.8095 44.2688C53.3016 44.9184 56.291 48.0579 57.3492 49.5465L58.9365 47.5166C62.1111 49.4653 64.2275 53.2003 64.8889 54.8242L66.4762 54.0122Z" stroke="#81D4BF" stroke-linejoin="round"/>
</g>
<defs>
<filter id="filter0_d_35696_27201" x="0.5" y="0.5" width="151" height="126" filterUnits="userSpaceOnUse" color-interpolation-filters="sRGB">
<feFlood flood-opacity="0" result="BackgroundImageFix"/>
<feColorMatrix in="SourceAlpha" type="matrix" values="0 0 0 0 0 0 0 0 0 0 0 0 0 0 0 0 0 0 127 0" result="hardAlpha"/>
<feOffset/>
<feGaussianBlur stdDeviation="12.5"/>
<feColorMatrix type="matrix" values="0 0 0 0 0.321778 0 0 0 0 0.0666667 0 0 0 0 1 0 0 0 0.5 0"/>
<feBlend mode="normal" in2="BackgroundImageFix" result="effect1_dropShadow_35696_27201"/>
<feBlend mode="normal" in="SourceGraphic" in2="effect1_dropShadow_35696_27201" result="shape"/>
</filter>
</defs>
</svg>
