<svg width="170" height="145" viewBox="0 0 170 145" fill="none" xmlns="http://www.w3.org/2000/svg">
<g filter="url(#filter0_d_35690_33449)">
<path d="M118.333 50.427C93.5714 67.6403 86.0582 96.8434 85.3968 109.293C97.1429 112.216 109.868 104.016 114.762 99.5499L112.778 98.7379L123.492 89.8065L121.508 88.5886C123.413 87.2895 127.328 82.093 129.048 79.6572L127.857 78.4392C127.857 78.4392 132.222 71.5377 133.81 68.2899H130.635C132.54 66.3412 134.339 59.6291 135 56.5166H133.016C133.968 54.8927 134.735 48.8031 135 45.9613H131.825C133.73 43.3631 133.413 37.5712 133.016 35C127.937 35 121.64 36.6239 119.127 37.4358V35.8119C113.095 35.1624 108.148 37.9771 106.429 39.4657L105.238 38.2478C99.8413 39.2221 95.9788 42.7135 94.5238 44.7434L93.3333 42.7135C91.5729 43.5126 85.9259 49.3444 85.3968 51.239L84.2063 49.2091C79.7619 53.4312 77.328 59.0878 76.6667 61.3883C85.2381 68.2087 87.6455 79.6571 87.7778 84.5288C95.7143 64.7173 111.455 53.5395 118.333 50.427Z" fill="url(#paint0_radial_35690_33449)"/>
<path d="M75.4762 63.0122C90.3968 84.1229 83.0159 101.309 77.4603 107.263C72.381 79.0076 56.0317 65.9894 48.4921 63.0122C69.127 79.2512 73.7566 100.632 73.4921 109.293C65.2381 112.216 54.709 105.369 50.4762 101.58L51.2698 100.768L44.127 94.2722L45.3175 93.0543C44.0476 92.08 41.0847 88.3179 39.7619 86.5587L40.9524 84.5288C40 83.8793 37.6455 79.6571 36.5873 77.6273L38.5714 76.8153C37.3016 75.5162 35.6614 70.5904 35 68.2899L36.5873 67.8839C35.3174 66.5848 35.2646 61.659 35.3969 59.3584L37.381 60.1704C36.4286 59.1961 36.455 53.2688 36.5873 50.427C38.1746 50.427 44.127 51.7803 46.9048 52.4569L48.0952 51.239C51.9048 51.239 55.5026 53.1335 56.8254 54.0808L58.8095 53.2688C62.3016 53.9184 65.291 57.0579 66.3492 58.5465L67.9365 56.5166C71.1111 58.4653 73.2275 62.2003 73.8889 63.8242L75.4762 63.0122Z" fill="url(#paint1_radial_35690_33449)"/>
<path d="M118.127 49.9715C111.381 53.0243 96.3286 63.666 88.1183 82.4227C87.8321 79.9936 87.147 76.8192 85.8526 73.5073C84.1759 69.2172 81.465 64.6665 77.2428 61.2107C77.9786 58.886 80.2079 53.9165 84.0984 50.0133L84.9655 51.4919C85.067 51.665 85.2622 51.7606 85.4612 51.7348C85.6602 51.709 85.8244 51.5667 85.8784 51.3734C85.9261 51.2027 86.0441 50.9507 86.2446 50.6215C86.441 50.2991 86.7007 49.9278 87.0098 49.5237C87.6275 48.7157 88.4258 47.7977 89.2665 46.9091C90.107 46.0208 90.9832 45.1688 91.7547 44.4922C92.3105 44.0047 92.7893 43.6286 93.1512 43.3913L94.0925 44.9963C94.1782 45.1423 94.3318 45.2351 94.5009 45.2428C94.67 45.2506 94.8316 45.1722 94.9302 45.0347C96.3026 43.1201 99.9592 39.7988 105.068 38.7888L106.071 39.8152C106.256 40.0043 106.556 40.0168 106.756 39.8437C108.357 38.458 112.969 35.817 118.627 36.2673V37.4358C118.627 37.5957 118.703 37.746 118.833 37.8401C118.962 37.9342 119.129 37.9608 119.281 37.9116C121.704 37.1289 127.659 35.5914 132.583 35.5039C132.75 36.7714 132.88 38.6086 132.784 40.4445C132.676 42.5247 132.282 44.4927 131.422 45.6657C131.311 45.8176 131.294 46.0193 131.379 46.1873C131.465 46.3554 131.637 46.4613 131.825 46.4613H134.449C134.307 47.8623 134.073 49.7979 133.773 51.6141C133.602 52.6476 133.411 53.6354 133.205 54.4611C132.996 55.302 132.783 55.9251 132.585 56.2637C132.494 56.4183 132.493 56.6096 132.582 56.7652C132.671 56.9207 132.837 57.0166 133.016 57.0166H134.378C134.032 58.5486 133.479 60.6722 132.809 62.6815C132.428 63.8262 132.011 64.9254 131.575 65.8534C131.135 66.7916 130.694 67.5146 130.277 67.9404C130.137 68.0843 130.096 68.2984 130.174 68.4838C130.252 68.6693 130.434 68.7899 130.635 68.7899H132.995C132.17 70.3661 130.921 72.4877 129.81 74.3236C129.167 75.3871 128.573 76.3495 128.139 77.046C127.923 77.3943 127.746 77.6759 127.624 77.8705L127.484 78.0943L127.447 78.1524L127.438 78.1671L127.435 78.1708L127.435 78.1717L127.435 78.1719L127.857 78.4392L127.435 78.172C127.311 78.3678 127.338 78.623 127.5 78.7887L128.398 79.708C127.534 80.9168 126.256 82.635 124.959 84.2342C124.247 85.1121 123.533 85.9498 122.883 86.6461C122.225 87.3492 121.654 87.8835 121.226 88.1755C121.086 88.2711 121.004 88.4311 121.008 88.6006C121.012 88.7701 121.102 88.926 121.246 89.0147L122.637 89.8683L112.458 98.3539C112.323 98.4662 112.257 98.6409 112.284 98.8143C112.31 98.9876 112.426 99.1343 112.588 99.2007L113.829 99.7085C111.334 101.86 107.253 104.686 102.453 106.732C97.3668 108.901 91.5252 110.173 85.9204 108.904C86.72 96.3215 94.299 67.7435 118.619 50.8376C118.831 50.69 118.896 50.405 118.768 50.1802C118.641 49.9554 118.363 49.8649 118.127 49.9715ZM60.6753 107.495C56.7882 105.808 53.3338 103.386 51.2026 101.552L51.6274 101.117C51.7223 101.02 51.7736 100.889 51.7696 100.753C51.7656 100.617 51.7067 100.489 51.6062 100.398L44.8469 94.251L45.675 93.4038C45.775 93.3015 45.8264 93.1614 45.8162 93.0188C45.806 92.8761 45.7353 92.7447 45.6218 92.6576C45.0398 92.211 44.0176 91.0739 42.9442 89.7814C41.9873 88.6292 41.0241 87.396 40.3621 86.5237L41.3837 84.7818C41.5167 84.555 41.4513 84.2639 41.2341 84.1158C41.0797 84.0104 40.8007 83.6975 40.424 83.171C40.0635 82.667 39.6544 82.0272 39.2375 81.3371C38.5287 80.1638 37.8091 78.8642 37.2863 77.8815L38.7608 77.2781C38.9148 77.2151 39.0273 77.0796 39.061 76.9167C39.0948 76.7538 39.0453 76.5848 38.929 76.4658C38.6683 76.1992 38.3559 75.7062 38.0173 75.0338C37.6845 74.3731 37.3463 73.5799 37.0238 72.7475C36.4658 71.3073 35.9633 69.7717 35.6258 68.6459L36.7112 68.3683C36.8843 68.3241 37.0206 68.1908 37.0688 68.0188C37.117 67.8468 37.0697 67.6621 36.9449 67.5344C36.7207 67.305 36.5061 66.8583 36.3301 66.1984C36.1586 65.5554 36.0405 64.7765 35.9641 63.9507C35.8403 62.6108 35.8297 61.1852 35.865 60.0903L37.1916 60.6331C37.411 60.7229 37.6633 60.6463 37.7957 60.4497C37.9281 60.253 37.9042 59.9904 37.7385 59.8209C37.697 59.7784 37.6227 59.6629 37.5406 59.4252C37.4622 59.1986 37.3912 58.9043 37.329 58.5501C37.2048 57.8426 37.1243 56.9451 37.0768 55.9746C36.9926 54.2551 37.014 52.3489 37.0657 50.9558C37.4131 50.9899 37.8643 51.0536 38.3962 51.1422C39.2117 51.2781 40.1842 51.467 41.1978 51.6777C43.2246 52.0992 45.4015 52.6053 46.7864 52.9427C46.958 52.9845 47.1389 52.9327 47.2623 52.8064L48.3038 51.7409C51.8964 51.8083 55.2859 53.5933 56.5343 54.4873C56.6741 54.5874 56.8556 54.6087 57.0148 54.5435L58.8602 53.7884C60.4426 54.1166 61.9358 54.9891 63.1799 55.9836C64.4586 57.0059 65.4387 58.1287 65.9417 58.8362C66.0331 58.9649 66.18 59.0428 66.3378 59.0464C66.4956 59.05 66.6458 58.9788 66.7431 58.8545L68.0491 57.1844C70.8891 59.1094 72.81 62.5007 73.4258 64.0128C73.4787 64.1425 73.5835 64.2441 73.7148 64.2929C73.8461 64.3417 73.9919 64.3331 74.1166 64.2693L75.3167 63.6554C89.167 83.5453 83.0309 99.7803 77.7637 106.159C72.4511 78.447 56.2958 65.556 48.6757 62.5472C48.4449 62.456 48.1821 62.548 48.0585 62.7632C47.9349 62.9784 47.9878 63.2517 48.1828 63.4051C68.4068 79.3207 73.1281 100.194 73.0001 108.931C69.1258 110.17 64.7096 109.246 60.6753 107.495Z" stroke="#2F8972" stroke-linejoin="round"/>
</g>
<defs>
<filter id="filter0_d_35690_33449" x="0" y="0" width="170" height="145" filterUnits="userSpaceOnUse" color-interpolation-filters="sRGB">
<feFlood flood-opacity="0" result="BackgroundImageFix"/>
<feColorMatrix in="SourceAlpha" type="matrix" values="0 0 0 0 0 0 0 0 0 0 0 0 0 0 0 0 0 0 127 0" result="hardAlpha"/>
<feMorphology radius="10" operator="dilate" in="SourceAlpha" result="effect1_dropShadow_35690_33449"/>
<feOffset/>
<feGaussianBlur stdDeviation="12.5"/>
<feColorMatrix type="matrix" values="0 0 0 0 0.321778 0 0 0 0 0.0666667 0 0 0 0 1 0 0 0 1 0"/>
<feBlend mode="normal" in2="BackgroundImageFix" result="effect1_dropShadow_35690_33449"/>
<feBlend mode="normal" in="SourceGraphic" in2="effect1_dropShadow_35690_33449" result="shape"/>
</filter>
<radialGradient id="paint0_radial_35690_33449" cx="0" cy="0" r="1" gradientUnits="userSpaceOnUse" gradientTransform="translate(51.4583 72.5424) rotate(4.80434) scale(104.22 149.421)">
<stop offset="0.107657" stop-color="#81D1D6"/>
<stop offset="0.42707" stop-color="#44D6B1"/>
<stop offset="0.645239" stop-color="#65C6CD"/>
<stop offset="1" stop-color="#B4D1D1" stop-opacity="0.78"/>
</radialGradient>
<radialGradient id="paint1_radial_35690_33449" cx="0" cy="0" r="1" gradientUnits="userSpaceOnUse" gradientTransform="translate(51.4583 72.5424) rotate(4.80434) scale(104.22 149.421)">
<stop offset="0.107657" stop-color="#81D1D6"/>
<stop offset="0.42707" stop-color="#44D6B1"/>
<stop offset="0.645239" stop-color="#65C6CD"/>
<stop offset="1" stop-color="#B4D1D1" stop-opacity="0.78"/>
</radialGradient>
</defs>
</svg>
