<svg width="477" height="349" viewBox="0 0 477 349" fill="none" xmlns="http://www.w3.org/2000/svg">
<path d="M394.333 74.1415C278.943 152.405 243.931 285.181 240.849 341.787C295.586 355.077 354.884 317.791 377.69 297.487L368.444 293.795L418.373 253.187L409.127 247.649C418.003 241.743 436.249 218.116 444.262 207.041L438.714 201.504C438.714 201.504 459.056 170.125 466.452 155.358H451.659C460.535 146.498 468.918 115.98 472 101.829H462.754C467.192 94.4456 470.767 66.7582 472 53.8374H457.206C466.083 42.0241 464.603 15.6903 462.754 4C439.084 4 409.743 11.3833 398.032 15.0749V7.69161C369.924 4.73828 346.87 17.536 338.857 24.3041L333.31 18.7666C308.16 23.1966 290.161 39.0707 283.381 48.2999L277.833 39.0708C269.63 42.7041 243.315 69.2192 240.849 77.8331L235.302 68.604C214.59 87.8006 203.249 113.519 200.167 123.979C240.11 154.989 251.328 207.041 251.944 229.191C288.929 139.115 362.28 88.2928 394.333 74.1415Z" stroke="#58C6AA" stroke-width="8"/>
<path d="M194.619 131.362C264.149 227.345 229.754 305.485 203.865 332.558C180.195 204.088 104.008 144.898 68.873 131.362C165.032 205.195 186.606 302.409 185.373 341.787C146.91 355.077 97.8439 323.944 78.119 306.716L81.8175 303.024L48.5317 273.491L54.0794 267.954C48.1619 263.524 34.3545 246.419 28.1905 238.42L33.7381 229.191C29.3 226.238 18.328 207.041 13.3968 197.812L22.6429 194.12C16.7254 188.214 9.08201 165.818 6 155.358L13.3968 153.512C7.47923 147.605 7.23286 125.209 7.84938 114.75L17.0952 118.441C12.6571 114.011 12.7804 87.0623 13.3968 74.1415C20.7937 74.1415 48.5317 80.2943 61.4762 83.3707L67.0238 77.8331C84.7762 77.8331 101.542 86.447 107.706 90.754L116.952 87.0623C133.225 90.0156 147.156 104.29 152.087 111.058L159.484 101.829C174.278 110.689 184.14 127.671 187.222 135.054L194.619 131.362Z" stroke="#58C6AA" stroke-width="8"/>
</svg>
